# xmcd
#
# Track frame offsets: 
#        150
#        31443
#        55843
#        77799
#        104349
#        123542
#        143210
#
# Disc length: 2210 seconds
#
# Revision: 0
# Processed by: cddbd v1.5.2PL0 Copyright (c) Steve Scherf et al.
# Submitted via: ExactAudioCopy v1.0b3
#
DISCID=5d08a007
DTITLE=Freak Clinic - Freak Clinic
DYEAR=2012
DGENRE=Blues
TTITLE0=Blue News
TTITLE1=Masochist
TTITLE2=New Moon
TTITLE3=Rig
TTITLE4=Where Are You
TTITLE5=Tip
TTITLE6=Trigger
EXTD=
EXTT0=
EXTT1=
EXTT2=
EXTT3=
EXTT4=
EXTT5=
EXTT6=
PLAYORDER=
